#!OML:ASF E:\Steps\Project 1\Capture day 1\Session 2\Subject.ASF
:FULLY-SPECIFIED
:DEGREES
99
root 16.913 18.0066 20.7741 -155.179 -4.69119 176.906
lowerback -28.3342 -2.21259 -7.52566
upperback -0.385724 -0.906245 -0.0579604
thorax 14.7088 -1.12194 3.64342
lowerneck -6.1792 -1.32286 -0.670907
upperneck 5.70892 -1.99614 3.40683
head 2.95792 -0.904538 1.13156
rclavicle -4.91992e-015 1.05356e-014
rhumerus -38.2268 -21.2182 -75.8154
rradius 32.1995
rwrist -1.73052
rhand -6.15665 -53.2394
rfingers 7.12502
rthumb 19.6818 -82.2631
lclavicle -4.91992e-015 1.05356e-014
lhumerus -32.0178 5.97012 80.3186
lradius 23.1247
lwrist -4.03961
lhand -20.7515 -12.2508
lfingers 7.12502
lthumb 5.61431 17.6549
rfemur -21.6308 4.81474 20.4553
rtibia 6.84283
rfoot -19.3992 -1.48035
rtoes -10.7296
lfemur -22.6753 -9.80401 -22.144
ltibia 10.0412
lfoot -7.47932 -2.8855
ltoes -1.06907
100
root 16.9118 18.0056 20.7754 -155.165 -4.6633 176.944
lowerback -28.3673 -2.17264 -7.49409
upperback -0.416233 -0.867668 -0.0550655
thorax 14.6839 -1.10301 3.64357
lowerneck -6.1919 -1.33177 -0.531679
upperneck 6.09134 -2.01904 3.18027
head 3.08529 -0.918354 1.03319
rclavicle 6.31141e-015 5.96354e-016
rhumerus -38.2596 -21.2644 -75.7749
rradius 32.1581
rwrist -1.76467
rhand -6.28019 -52.7677
rfingers 7.12502
rthumb 19.563 -81.8035
lclavicle 6.31141e-015 5.96354e-016
lhumerus -32.015 5.77419 80.3944
lradius 23.0977
lwrist -3.94217
lhand -20.9386 -12.5314
lfingers 7.12502
lthumb 5.43361 17.3789
rfemur -21.7053 5.08721 20.4434
rtibia 6.95152
rfoot -19.3312 -1.79719
rtoes -10.8744
lfemur -22.7158 -9.85195 -22.0963
ltibia 10.0666
lfoot -7.50097 -2.82607
ltoes -2.03033
101
root 16.9088 18.0055 20.7742 -155.222 -4.61767 176.962
lowerback -28.3443 -2.14516 -7.44444
upperback -0.411513 -0.847778 -0.0574139
thorax 14.6763 -1.08992 3.62253
lowerneck -6.34851 -1.35771 -0.401389
upperneck 6.45353 -2.07106 3.04524
head 3.23648 -0.942908 0.964101
rclavicle -4.87022e-015 2.34566e-014
rhumerus -38.2604 -21.2011 -75.8061
rradius 32.1888
rwrist -1.83277
rhand -6.23046 -52.56
rfingers 7.12502
rthumb 19.6108 -81.5909
lclavicle -4.87022e-015 2.34566e-014
lhumerus -31.9867 5.86607 80.3787
lradius 23.0864
lwrist -4.05108
lhand -20.9755 -12.8418
lfingers 7.12502
lthumb 5.39798 17.0694
rfemur -21.6735 5.15288 20.4356
rtibia 7.00338
rfoot -19.2566 -1.86088
rtoes -10.8461
lfemur -22.6547 -9.94862 -22.0898
ltibia 10.081
lfoot -7.53326 -2.66624
ltoes -2.13203
102
root 16.9068 18.0061 20.7732 -155.293 -4.61926 176.981
lowerback -28.3034 -2.10459 -7.33605
upperback -0.410552 -0.824114 -0.119509
thorax 14.6538 -1.06897 3.50593
lowerneck -6.30791 -1.35918 -0.441389
upperneck 6.62317 -2.09646 3.22884
head 3.29168 -0.951343 1.03085
rclavicle -5.2181e-016 2.98177e-015
rhumerus -38.4261 -21.0428 -75.9586
rradius 32.423
rwrist -2.0449
rhand -6.11362 -52.3833
rfingers 7.12502
rthumb 19.7231 -81.4027
lclavicle -5.2181e-016 2.98177e-015
lhumerus -32.0069 5.80537 80.2823
lradius 23.1582
lwrist -4.15874
lhand -20.8231 -12.8538
lfingers 7.12502
lthumb 5.54514 17.0536
rfemur -21.5921 5.09354 20.4577
rtibia 6.98668
rfoot -19.1946 -1.78039
rtoes -10.3042
lfemur -22.5924 -9.9596 -22.0874
ltibia 10.123
lfoot -7.60256 -2.61564
ltoes -2.26639
103
root 16.9082 18.0045 20.7794 -155.197 -4.60525 176.975
lowerback -28.3808 -2.12746 -7.38613
upperback -0.419979 -0.839266 -0.0879143
thorax 14.6815 -1.08213 3.55991
lowerneck -6.14413 -1.30268 -0.729698
upperneck 6.59803 -2.01934 3.51609
head 3.25945 -0.912943 1.18058
rclavicle 1.46852e-014 -2.50469e-014
rhumerus -38.5406 -20.7676 -76.06
rradius 32.7676
rwrist -2.33815
rhand -6.01662 -52.6012
rfingers 7.12502
rthumb 19.8164 -81.611
lclavicle 1.46852e-014 -2.50469e-014
lhumerus -31.9645 5.72725 80.3487
lradius 23.2447
lwrist -4.15896
lhand -20.6937 -12.5696
lfingers 7.12502
lthumb 5.67011 17.3346
rfemur -21.7602 5.11338 20.4527
rtibia 7.0567
rfoot -19.1778 -1.79669
rtoes -10.5931
lfemur -22.7917 -9.83086 -22.1025
ltibia 10.2791
lfoot -7.6768 -2.70573
ltoes -2.89192
104
root 16.9131 17.999 20.7882 -154.978 -4.59316 176.976
lowerback -28.5101 -2.16876 -7.42643
upperback -0.498146 -0.891268 -0.0589033
thorax 14.6568 -1.11205 3.58925
lowerneck -6.12658 -1.34611 -0.587653
upperneck 6.9094 -2.08797 3.29782
head 3.35904 -0.950822 1.08135
rclavicle 1.73937e-016 -2.00773e-014
rhumerus -38.5848 -20.7622 -76.069
rradius 32.8631
rwrist -2.34713
rhand -6.00398 -52.8245
rfingers 7.12502
rthumb 19.8285 -81.8331
lclavicle 1.73937e-016 -2.00773e-014
lhumerus -31.9961 5.83127 80.3138
lradius 23.3547
lwrist -4.34653
lhand -20.5596 -12.0809
lfingers 7.12502
lthumb 5.7996 17.8197
rfemur -22.1058 5.12009 20.4762
rtibia 7.18727
rfoot -19.1909 -1.7875
rtoes -10.935
lfemur -23.156 -9.67722 -22.079
ltibia 10.4511
lfoot -7.71771 -2.8707
ltoes -4.1832
105
root 16.9227 17.9885 20.7989 -154.56 -4.60655 176.987
lowerback -28.7954 -2.20928 -7.47052
upperback -0.633727 -0.940668 -0.0513828
thorax 14.6359 -1.14452 3.59352
lowerneck -6.17361 -1.46404 -0.345673
upperneck 7.37473 -2.27357 3.05667
head 3.5255 -1.04497 0.950775
rclavicle 7.70291e-016 -4.57205e-015
rhumerus -38.6105 -20.878 -76.0933
rradius 32.8595
rwrist -2.30473
rhand -6.07485 -52.8079
rfingers 7.12502
rthumb 19.7604 -81.8235
lclavicle 7.70291e-016 -4.57205e-015
lhumerus -32.0174 5.95156 80.1722
lradius 23.4536
lwrist -4.78859
lhand -20.3164 -11.9774
lfingers 7.12502
lthumb 6.03436 17.9166
rfemur -22.6878 5.22077 20.5174
rtibia 7.35056
rfoot -19.1668 -1.82978
rtoes -10.131
lfemur -23.7951 -9.36781 -22.0035
ltibia 10.6981
lfoot -7.70492 -3.32447
ltoes -4.61059
106
root 16.9172 17.9935 20.7918 -154.86 -4.5832 176.982
lowerback -28.6096 -2.15806 -7.36366
upperback -0.565528 -0.898729 -0.109675
thorax 14.6232 -1.11214 3.49354
lowerneck -6.08275 -1.50099 -0.380588
upperneck 7.57447 -2.34303 3.14864
head 3.58134 -1.07929 0.984635
rclavicle -7.70291e-016 2.44505e-014
rhumerus -38.6696 -20.8704 -76.176
rradius 32.9134
rwrist -2.37635
rhand -6.22103 -52.8223
rfingers 7.12502
rthumb 19.6199 -81.8522
lclavicle -7.70291e-016 2.44505e-014
lhumerus -32.0414 5.90954 80.0992
lradius 23.5062
lwrist -5.05724
lhand -20.2333 -12.5663
lfingers 7.12502
lthumb 6.1146 17.3254
rfemur -22.2873 5.09869 20.5081
rtibia 7.25637
rfoot -19.241 -1.66637
rtoes -10.1572
lfemur -23.4033 -9.61302 -22.0428
ltibia 10.6623
lfoot -7.90355 -3.19959
ltoes -3.72712
107
root 16.9216 17.9893 20.7922 -154.832 -4.65212 177.042
lowerback -28.6426 -2.22674 -7.39366
upperback -0.581023 -0.990879 -0.0189567
thorax 14.6338 -1.15844 3.57217
lowerneck -6.16696 -1.45212 -0.372609
upperneck 7.94272 -2.28758 3.03194
head 3.72349 -1.05537 0.947844
rclavicle 9.39258e-015 5.96354e-016
rhumerus -38.5999 -20.8636 -76.1501
rradius 32.8384
rwrist -2.28531
rhand -6.27821 -52.7621
rfingers 7.12502
rthumb 19.5649 -81.7977
lclavicle 9.39258e-015 5.96354e-016
lhumerus -32.0384 5.91058 80.1653
lradius 23.5026
lwrist -5.00421
lhand -20.3189 -12.8473
lfingers 7.12502
lthumb 6.03193 17.0469
rfemur -22.3022 5.10108 20.6235
rtibia 7.2456
rfoot -19.3737 -1.68408
rtoes -10.9496
lfemur -23.5254 -9.58009 -21.9438
ltibia 10.8489
lfoot -8.11684 -3.30869
ltoes -3.64823
108
root 16.925 17.989 20.7918 -154.9 -4.72271 177.077
lowerback -28.6093 -2.28011 -7.39027
upperback -0.558889 -1.06375 0.0140893
thorax 14.6539 -1.19085 3.57899
lowerneck -6.17857 -1.38569 -0.28035
upperneck 8.26016 -2.20776 2.84447
head 3.83118 -1.02132 0.873862
rclavicle -1.31446e-014 2.5842e-014
rhumerus -38.5517 -20.984 -76.1407
rradius 32.77
rwrist -2.09155
rhand -6.19237 -52.7636
rfingers 7.12502
rthumb 19.6474 -81.7907
lclavicle -1.31446e-014 2.5842e-014
lhumerus -31.9561 5.8603 80.1734
lradius 23.4023
lwrist -4.76341
lhand -20.4012 -12.5775
lfingers 7.12502
lthumb 5.95248 17.3189
rfemur -22.195 5.15074 20.6918
rtibia 7.21152
rfoot -19.4088 -1.80192
rtoes -11.2132
lfemur -23.517 -9.58324 -21.8855
ltibia 10.9712
lfoot -8.2291 -3.31017
ltoes -4.8754
109
root 16.924 17.9908 20.7899 -155.037 -4.7444 177.095
lowerback -28.5205 -2.25437 -7.30182
upperback -0.518909 -1.05195 -0.0198871
thorax 14.6568 -1.17627 3.50119
lowerneck -6.18796 -1.35899 -0.295918
upperneck 8.52184 -2.18604 2.83179
head 3.92538 -1.01288 0.873965
rclavicle -9.6659e-015 1.17283e-014
rhumerus -38.5662 -20.9733 -76.226
rradius 32.8512
rwrist -2.13944
rhand -6.14503 -53.0976
rfingers 7.12502
rthumb 19.6929 -82.1201
lclavicle -9.6659e-015 1.17283e-014
lhumerus -31.8616 5.7927 80.1592
lradius 23.3026
lwrist -4.64149
lhand -20.5497 -12.4276
lfingers 7.12502
lthumb 5.80909 17.4727
rfemur -22.0207 5.11893 20.7232
rtibia 7.17582
rfoot -19.3818 -1.79686
rtoes -11.2672
lfemur -23.3921 -9.64001 -21.8765
ltibia 11.0169
lfoot -8.25196 -3.23223
ltoes -5.35063
110
root 16.9239 17.9888 20.7896 -155.075 -4.75791 177.116
lowerback -28.4987 -2.23595 -7.23361
upperback -0.519796 -1.04881 -0.038801
thorax 14.6444 -1.16896 3.44534
lowerneck -6.14285 -1.34302 -0.349872
upperneck 8.7359 -2.1947 3.0021
head 3.99673 -1.0149 0.940565
rclavicle -1.19271e-014 -1.23246e-014
rhumerus -38.6007 -20.8703 -76.3052
rradius 32.9161
rwrist -2.26784
rhand -6.22232 -53.2468
rfingers 7.12502
rthumb 19.6186 -82.2769
lclavicle -1.19271e-014 -1.23246e-014
lhumerus -31.8736 5.72798 80.1547
lradius 23.3388
lwrist -4.65124
lhand -20.7523 -12.3951
lfingers 7.12502
lthumb 5.61349 17.5105
rfemur -21.9822 5.00717 20.7732
rtibia 7.15241
rfoot -19.2848 -1.71354
rtoes -10.9691
lfemur -23.3778 -9.65177 -21.8515
ltibia 11.0595
lfoot -8.23058 -3.2581
ltoes -4.65801
111
root 16.9218 17.9883 20.7873 -155.196 -4.74969 177.147
lowerback -28.4291 -2.21831 -7.17132
upperback -0.480426 -1.04276 -0.0347609
thorax 14.6575 -1.16023 3.42062
lowerneck -6.09701 -1.30362 -0.354539
upperneck 8.9498 -2.17392 3.13328
head 4.06602 -1.00257 0.987127
rclavicle -1.51573e-015 -3.24019e-014
rhumerus -38.5961 -20.7497 -76.364
rradius 32.9422
rwrist -2.43802
rhand -6.35742 -53.3681
rfingers 7.12502
rthumb 19.4887 -82.4114
lclavicle -1.51573e-015 -3.24019e-014
lhumerus -31.8687 5.69184 80.1821
lradius 23.4325
lwrist -4.64684
lhand -20.8296 -12.231
lfingers 7.12502
lthumb 5.53886 17.6766
rfemur -21.8453 4.85348 20.8359
rtibia 7.12598
rfoot -19.2128 -1.55791
rtoes -10.5334
lfemur -23.2729 -9.76834 -21.8245
ltibia 11.1376
lfoot -8.30976 -3.16862
ltoes -3.76122
112
root 16.9218 17.9896 20.7833 -155.362 -4.76863 177.204
lowerback -28.3315 -2.21339 -7.07288
upperback -0.42801 -1.06477 -0.0259448
thorax 14.6758 -1.16094 3.37135
lowerneck -6.15728 -1.25262 -0.286129
upperneck 9.31706 -2.12955 3.04925
head 4.20615 -0.983662 0.949904
rclavicle 4.37326e-015 -7.95139e-016
rhumerus -38.5668 -20.53 -76.5108
rradius 33.0218
rwrist -2.64341
rhand -6.42973 -53.6923
rfingers 7.12502
rthumb 19.4192 -82.7426
lclavicle 4.37326e-015 -7.95139e-016
lhumerus -31.8714 5.73794 80.19
lradius 23.5396
lwrist -4.61034
lhand -20.8153 -12.0398
lfingers 7.12502
lthumb 5.55265 17.8674
rfemur -21.6348 4.81895 20.9268
rtibia 7.10029
rfoot -19.2309 -1.48825
rtoes -10.2936
lfemur -23.1573 -9.90067 -21.7534
ltibia 11.3166
lfoot -8.50501 -3.07977
ltoes -3.58797
